<svg width="165" height="32" viewBox="0 0 165 32" fill="none" xmlns="http://www.w3.org/2000/svg">
<g clip-path="url(#clip0_20009_4616)">
<path fill-rule="evenodd" clip-rule="evenodd" d="M46.986 0.0175781C55.6157 0.0175781 62.6116 7.17353 62.6116 16.0008C62.6116 24.8281 55.6157 31.9841 46.986 31.9841C38.3562 31.9841 31.3604 24.8281 31.3604 16.0008C31.3604 7.17353 38.3562 0.0175781 46.986 0.0175781ZM46.986 5.55516C52.6261 5.55516 57.1979 10.2317 57.1979 16.0008C57.1979 21.77 52.6261 26.4465 46.986 26.4465C41.3459 26.4465 36.774 21.77 36.774 16.0008C36.774 10.2317 41.3459 5.55516 46.986 5.55516Z" fill="#D5D6D7"/>
<path d="M23.6536 31.9836H17.7397V18.6649H5.91282V31.9836H0V0.51123H5.91282V12.6166H17.7397V0.507812L23.6536 0.512711V31.9836ZM94.0149 31.9836H89.4602L76.3218 12.1631V31.9836H70.5634V0.597007H75.1987L88.4412 19.4177L88.2664 0.512597H94.0149V31.9836ZM141.018 0.512711H153.947C157.035 0.512711 159.628 2.55291 160.645 3.75743C161.498 4.76819 162.945 7.29514 162.945 10.1184C162.945 11.7298 162.766 14.2817 161.688 16.1062C160.684 17.8043 158.651 19.7257 156.328 20.2991L165 31.9837H158.079L146.518 18.2499V31.9837H141.018V0.512711H141.018ZM146.937 5.96657V15.2014H151.995C155.507 15.2014 157.14 13.0312 157.193 10.518C157.241 8.22479 154.907 5.95255 152.559 5.95631L146.937 5.96657Z" fill="#D5D6D7"/>
<path fill-rule="evenodd" clip-rule="evenodd" d="M117.592 0.0175781C126.222 0.0175781 133.218 7.17353 133.218 16.0008C133.218 24.8281 126.222 31.9841 117.592 31.9841C108.963 31.9841 101.967 24.8281 101.967 16.0008C101.967 7.17353 108.963 0.0175781 117.592 0.0175781ZM117.592 5.55516C123.233 5.55516 127.804 10.2317 127.804 16.0008C127.804 21.77 123.233 26.4465 117.592 26.4465C111.952 26.4465 107.38 21.77 107.38 16.0008C107.38 10.2317 111.952 5.55516 117.592 5.55516Z" fill="#D5D6D7"/>
</g>
<defs>
<clipPath id="clip0_20009_4616">
<rect width="165" height="32" fill="white"/>
</clipPath>
</defs>
</svg>
